_________________________  Visit us at _________________________
  
http://p2pdl.com  ____________________________  http://p2pdl.com

 
http://www.shotpix.com/images/30174983914751827644.jpg

Lana Del Rey - Burning Desire M4A+MP4 (1080p) x264 [VX] [P2PDL]


                         1080p Full HD MP4 Video
                                    +
                          128 Kbps/VBR M4A Audio

General
Complete name                  : Lana Del Rey - Burning Desire (1080p) x264 [VX] [P2PDL].mp4
Format                         : MPEG-4
Format profile                 : Base Media / Version 2
Codec ID                       : mp42
File size                      : 35.8 MiB
Duration                       : 3mn 46s
Overall bit rate mode          : Variable
Overall bit rate               : 1 328 Kbps

Video
ID                             : 1
Format                         : AVC
Width                          : 1 918 pixels
Height                         : 724 pixels
Display aspect ratio           : 2.649
Frame rate mode                : Constant
Frame rate                     : 25.000 fps
Scan type                      : Progressive
Bits/(Pixel*Frame)             : 0.035
Stream size                    : 32.4 MiB (91%)
Writing library                : x264 core 129

Audio
Format                         : AAC
Bit rate mode                  : Variable
Bit rate                       : 120 Kbps
Channel(s)                     : 2 channels
Channel positions              : Front: L R
Sampling rate                  : 48.0 KHz
Stream size                    : 3.25 MiB (9%)

Subtitles                      : No

Screens:
 
http://www.shotpix.com/images/97335338499351144002.jpg
------------------------------------------------------------------------

Notes:

* Recommended to use latest version VLC Media Player.
* Install shark007 codecs in case of any kind of problem in playback (For non-VLC Media Player users).
* Alternatively, install Core AVC codecs, the fastest decoder that there is coupled with Community Center Codec Pack and play on Windows Media Player Classic.

Greets to: VYTO, a2zRG, MusiK_KinG, Kuroyukihime, Caveman, Ash968, Neon, TwentyForty, Masta, TorDigger and staff members at ExtraTorrent, TPB, H33T, KAT, 1337x, PublicHD, Ahashare, TorrentMafia, Limetorrents, BTScene, P2PDL, and all others

Encoder Notes: Looking For Early Access To Anything You Can Provide DVDScr, R5, DVDRips, BluRay, Direct Audio, Early Music
Releases, Seedboxes, Links, Dedicated Servers anything u can provide, Advance / Promo CDs/DVDs. If You Got anything to
offer contact me at "prg@hush.com"